<svg xmlns="http://www.w3.org/2000/svg" viewBox="0 0 420 420" role="img" aria-labelledby="title desc">
  <title id="title">Original ThorDad TD mark</title>
  <desc id="desc">A cinematic monogram with lightning, wave, and sun accents.</desc>
  <defs>
    <linearGradient id="shield" x1="80" y1="40" x2="340" y2="380" gradientUnits="userSpaceOnUse">
      <stop stop-color="#142944"/>
      <stop offset=".48" stop-color="#0b1728"/>
      <stop offset="1" stop-color="#321927"/>
    </linearGradient>
    <linearGradient id="bolt" x1="186" y1="48" x2="246" y2="288" gradientUnits="userSpaceOnUse">
      <stop stop-color="#b8ebff"/>
      <stop offset=".45" stop-color="#55c7ff"/>
      <stop offset="1" stop-color="#e8be73"/>
    </linearGradient>
    <filter id="shadow" x="-20%" y="-20%" width="140%" height="140%">
      <feDropShadow dx="0" dy="18" stdDeviation="18" flood-color="#000814" flood-opacity=".55"/>
    </filter>
  </defs>
  <path fill="url(#shield)" stroke="#e8be73" stroke-width="8" d="M210 24 340 82v108c0 84-50 154-130 206C130 344 80 274 80 190V82L210 24Z" filter="url(#shadow)"/>
  <path fill="none" stroke="#55c7ff" stroke-width="6" stroke-linecap="round" opacity=".72" d="M112 190c35-22 66-22 98 0s64 22 98 0"/>
  <path fill="none" stroke="#d6b88e" stroke-width="5" stroke-linecap="round" opacity=".65" d="M122 234c28-16 58-16 86 0s58 16 88 0"/>
  <circle cx="286" cy="128" r="28" fill="#e8be73" opacity=".9"/>
  <path fill="url(#bolt)" d="M226 58 154 206h49l-23 122 91-162h-52l7-108Z"/>
  <path fill="#f3f7fb" d="M132 118h112v34h-38v126h-36V152h-38v-34Zm138 0h18c48 0 78 30 78 80s-30 80-78 80h-58v-34h56c26 0 43-17 43-46s-17-46-43-46h-16v-34Z" opacity=".94"/>
</svg>
